<?xml version="1.0" encoding="UTF-8" standalone="no"?>
<svg
   xmlns:dc="http://purl.org/dc/elements/1.1/"
   xmlns:cc="http://creativecommons.org/ns#"
   xmlns:rdf="http://www.w3.org/1999/02/22-rdf-syntax-ns#"
   xmlns:svg="http://www.w3.org/2000/svg"
   xmlns="http://www.w3.org/2000/svg"
   xmlns:sodipodi="http://sodipodi.sourceforge.net/DTD/sodipodi-0.dtd"
   xmlns:inkscape="http://www.inkscape.org/namespaces/inkscape"
   inkscape:version="1.0 (4035a4fb49, 2020-05-01)"
   sodipodi:docname="universidad-de-colima-ucol.svg"
   version="1.1"
   width="1080"
   height="1080"
   id="svg55"
   viewBox="0 0 1080 1080">
  <sodipodi:namedview
     inkscape:current-layer="svg55"
     inkscape:window-maximized="1"
     inkscape:window-y="-8"
     inkscape:window-x="1352"
     inkscape:cy="519.68901"
     inkscape:cx="340.03062"
     inkscape:zoom="0.52495348"
     fit-margin-bottom="0"
     fit-margin-right="0"
     fit-margin-left="0"
     fit-margin-top="0"
     showgrid="false"
     id="namedview32"
     inkscape:window-height="1017"
     inkscape:window-width="1920"
     inkscape:pageshadow="2"
     inkscape:pageopacity="0"
     guidetolerance="10"
     gridtolerance="10"
     objecttolerance="10"
     borderopacity="1"
     bordercolor="#666666"
     pagecolor="#ffffff" />
  <metadata
     id="metadata61">
    <rdf:RDF>
      <cc:Work
         rdf:about="">
        <dc:format>image/svg+xml</dc:format>
        <dc:type
           rdf:resource="http://purl.org/dc/dcmitype/StillImage" />
        <dc:title></dc:title>
      </cc:Work>
    </rdf:RDF>
  </metadata>
  <defs
     id="defs59" />
  <g
     transform="translate(-201.2471,-126.6568)"
     id="Layer1000">
    <path
       d="m 679.93284,484.19475 8.06268,-5.03798 c 1.81759,-1.13414 3.28742,-1.86132 4.41816,-2.17885 1.51769,-0.42456 3.03537,-0.43876 4.54862,-0.0398 1.51656,0.38866 2.95061,1.13414 4.29932,2.22908 1.34699,1.10335 2.66149,2.67173 3.94246,4.7215 1.12221,1.79713 1.86771,3.48789 2.23422,5.07048 0.44672,1.92564 0.47399,3.70176 0.0676,5.31843 -0.29537,1.22404 -0.96517,2.44876 -2.00545,3.68075 -0.7773,0.91618 -1.98543,1.88249 -3.61814,2.904 l -8.29641,5.18412 z m 6.72192,0.94188 9.04137,14.46799 3.28913,-2.05487 c 1.23267,-0.76948 2.07942,-1.3937 2.54205,-1.87908 0.59868,-0.62321 1.00846,-1.29403 1.21495,-2.0185 0.2049,-0.72277 0.14342,-1.66906 -0.16614,-2.83231 -0.31639,-1.15858 -0.99699,-2.59548 -2.05203,-4.28283 -1.0579,-1.68894 -2.01624,-2.88286 -2.87776,-3.60552 -0.86448,-0.71935 -1.72599,-1.16267 -2.57286,-1.33393 -0.85641,-0.17069 -1.75328,-0.0852 -2.68763,0.24979 -0.70629,0.2424 -1.95021,0.92937 -3.7519,2.05373 z m -3.14868,132.39269 c -0.40343,0 -6.46691,-5.27128 -6.46691,-0.81322 0,0.81322 -3.23459,5.67699 -3.23459,5.67699 -0.40458,0.40637 0,4.86501 -1.21326,6.0811 -0.80809,0.81151 -2.82888,2.83741 -4.04042,2.83741 -7.27658,0 -7.27658,1.21664 -10.51121,4.46033 -1.21436,1.21608 1.21154,7.70288 2.4248,8.91895 1.21267,1.21609 1.21267,7.70231 2.02078,8.51214 3.23459,3.24425 12.93723,-2.0259 14.14877,-4.86319 0.40513,-0.80982 3.63744,-9.32536 7.68015,-5.27187 1.21324,1.21667 3.63744,-1.62133 3.63744,-1.62133 1.21326,-0.40456 4.85241,-4.05519 4.85241,-6.08109 0,-1.62122 -4.44784,-1.62122 -6.06394,-1.62122 -6.06348,0 -3.63745,-10.94486 -3.23402,-16.215 z m -0.80811,46.21569 -1.61837,-0.40683 c 0,0 0,-0.40298 0,-0.40298 h -0.40298 c 0,0 -0.40514,0 -0.40514,0 h -0.40285 c 0,0 -0.40525,0 -0.40525,0 h -0.40343 c 0,0 -0.40639,0 -0.40639,0 h -0.40341 c 0,0 -0.40458,0 -0.40458,0 h -0.40355 c 0,0 -0.40285,0 -0.40285,0 h -0.40513 c 0,0 0,0.40298 0,0.40298 h -0.80809 c 0,0 0,0.40683 0,0.40683 h -0.40345 c 0,0 0,0.40458 0,0.40458 h -0.40638 c 0,0 -0.40344,0 -0.40344,0 v 0.40694 c 0,0 0,0.40457 0,0.40457 H 674.208 c 0,0 0,0.81151 0,0.81151 v 0.40344 c 0,0 -0.40342,0 -0.40342,0 0,0 0,0.81265 0,0.81265 v 0.40355 c 0,0 0,0.40626 0,0.40626 v 0.40683 c 0,0.40298 0,1.21609 0,1.61965 0,0.40625 0,1.21778 0,1.62233 0,0.40526 0,1.21679 0,1.62135 0,0.40625 0,1.21607 0,1.6229 0,0.80983 0,0.40299 0.40342,0.80983 0,0 0.40468,0.80981 0.40468,0.80981 0,0 0.40344,0.81266 0.40344,0.81266 0,0 1.21437,0 1.21437,0 0.40355,0.40513 0,0.40513 0.80868,0.40513 0.40285,0 0.8064,-0.40513 1.21098,-0.40513 0,0 0.8098,0 0.8098,0 0,0 0.40343,-0.4064 0.40343,-0.4064 0,0 0.40525,-0.40626 0.40525,-0.40626 0,0 0.40285,-0.40344 0.40285,-0.40344 0,0 0.40514,-0.40637 0.40514,-0.40637 0,0 0.80812,0 0.80812,0 0,0 0.40342,-0.40684 0.40342,-0.40684 v -0.40299 c 0,0 0.40638,-0.40683 0.40638,-0.40683 l 0.40343,-0.40625 c 0,0 0.40468,0 0.40468,0 v -0.40357 c 0,0 0,-0.40625 0,-0.40625 h 0.40343 c 0,0 0,-0.40456 0,-0.40456 0,0 0,-0.81153 0,-0.81153 h 0.40457 c 0,0 0.8081,-0.40526 0.8081,-0.40526 0,0 0,-1.62233 0,-1.62233 0,0 0,-1.21667 0,-1.21667 0,0 0,-1.21607 0,-1.21607 0,0 0,-0.80983 0,-0.80983 v -0.40637 c 0,0 0,-0.40344 0,-0.40344 h -0.40456 c 0,0 -0.80811,-0.81151 -1.61622,-2.0276 z m 53.35992,66.48717 V 583.47161 c 0,0 -10.1062,-22.69953 -44.87222,-14.99665 -34.76389,7.70242 -45.67807,6.89091 -45.67807,6.89091 v 52.30361 l 8.89466,-9.33046 3.63743,-10.13504 4.04261,-2.43286 c 0,0 10.91076,6.48692 8.89123,-10.53961 l -0.80811,-6.48634 c 0,0 -2.01964,-10.94828 6.06507,-5.27186 l 27.48772,30.8105 c 0,0 8.08313,12.976 -1.21323,25.54219 l 7.68015,8.10744 c 0,0 6.06347,5.27128 1.61792,11.35295 l -2.42603,6.48622 4.44554,7.29606 c 0,0 -3.63573,8.10926 0.80983,17.02822 z M 645.5076,652.80016 v 116.35008 c 0,0 5.66063,10.54131 49.31723,0 18.59432,-6.07997 43.25259,4.05508 43.25259,4.05508 v -16.64241 l -9.69968,1.64066 c 0,0 -7.27673,2.43271 -6.87218,-4.86321 0.40357,-7.29774 -3.63914,-15.00074 -3.63914,-15.00074 l -29.91479,-42.97316 -8.48825,-1.62132 -4.04088,-8.51383 h -12.53211 l -6.06506,-5.27016 v -17.43279 z m 164.24632,23.57083 4.19919,4.70499 -13.83068,15.35521 c 0,0 -4.69421,7.68355 -18.52491,-4.95037 -13.82942,-12.63551 -13.08917,-34.18327 -13.08917,-34.18327 0,0 6.17383,-13.12964 11.36148,-6.19327 l 10.37358,27.24703 c 0,0 4.19919,7.1833 12.10185,2.22795 z m -46.92653,-26.00994 -1.7277,-2.72298 -4.93957,11.39342 2.46811,9.65935 z m 2.96481,-26.5037 12.84337,-9.65887 c -0.49344,-0.4956 -1.48247,-1.23883 -1.72884,-1.48576 -0.74208,-0.74379 -2.47149,0.24693 -2.71841,0.49503 -0.24697,0.24863 -0.98735,0 -1.23384,0.24863 -0.49386,0.49514 -4.19907,1.23894 -5.18638,1.23894 -0.49344,0 -3.45824,0.98845 -3.45824,0.98845 -0.24706,0.24865 -0.49402,0.74548 -0.74038,0.99244 0,0 -0.24694,0.49513 -0.24694,0.49513 -0.74209,0.7438 -1.48246,2.47774 -1.48246,4.20999 0,1.48746 1.97576,2.47602 3.95212,2.47602 z m 31.11835,-4.20827 -4.44556,-1.73394 -7.40923,2.97275 1.72941,4.95207 5.18594,0.24865 z m 30.62505,30.71197 5.18763,12.13833 c 0,0 -5.43458,9.1659 -12.34991,1.23881 -6.91365,-7.92652 7.16228,-13.37714 7.16228,-13.37714 z m 10.32232,20.68001 v 96.62161 c 0,0 -22.90499,9.79651 -42.78143,3.71653 -19.8753,-6.0811 -48.50911,2.70367 -48.50911,2.70367 v -91.89376 l 3.36949,-4.0535 c 0,0 3.36664,1.69189 4.71523,10.47371 1.34871,8.78191 10.10619,13.51316 13.47441,1.3504 l 13.13873,11.48501 15.49508,6.4202 27.28578,-24.66292 z m -23.79845,-19.70575 c 4.77341,-23.4757 23.87244,-20.28667 23.87244,-20.28667 l -0.79492,-55.71017 c 0,0 -13.13078,1.98898 -44.5638,-5.96835 -31.43304,-7.95778 -46.84005,8.622 -46.84005,8.622 l 0.28741,43.899 1.59166,2.38728 13.13065,-16.31284 21.88358,-4.37683 13.12895,-7.56059 7.56071,8.3562 c 15.51678,-3.97836 0,23.87244 0,23.87244 0,0 17.10904,-5.57004 9.15115,6.3668 -7.95733,11.93672 -21.4846,14.72118 -21.4846,14.72118 0,0 -2.38784,19.09913 7.16059,20.68967 9.54956,1.59222 15.91623,-18.69912 15.91623,-18.69912 z M 769.2635,789.88195 c 0,0 12.49166,6.85727 29.13748,5.93938 v 79.02142 l 18.75591,-20.50421 v -62.7289 c 22.05883,-6.46691 41.81629,-0.74379 41.81629,-0.74379 l 5.88143,-10.32574 V 579.46653 l -27.94184,-12.29187 c 0,0 -8.91908,0.90027 -19.75588,-0.33057 v -13.7891 l -18.75591,-9.46422 v 18.66888 c -1.07608,-0.45354 -2.12943,-0.94528 -3.15664,-1.4745 -17.15561,-8.84953 -52.9375,7.86572 -52.9375,7.86572 0,0 -36.27533,-16.71525 -53.43278,-7.86572 -2.20509,1.13699 -4.53259,2.09079 -6.91534,2.88401 v -20.07839 l -18.75535,9.37876 v 14.22445 c -9.06579,0.67889 -15.99533,-0.0171 -15.99533,-0.0171 l -27.94412,12.29185 v 201.0736 l 5.88132,10.32573 c 0,0 17.5654,-5.08751 38.05813,-0.24977 v 60.88346 l 18.75535,20.31523 V 795.4849 c 18.48627,2.30817 32.89619,-5.60074 32.89619,-5.60074 14.1408,14.1806 40.36802,14.08047 54.40859,0 z m 53.04071,-325.6142 3.87644,-2.48058 -0.15535,-3.41152 -8.68283,-6.66898 -2.17157,1.08573 -2.3258,4.4974 c 0,-0.46491 -2.01681,-0.6197 -2.1716,-0.93096 0,0 -0.30955,-0.15477 -0.30955,-0.15477 -0.30956,-0.15479 -0.62083,-0.46436 -0.77618,-0.61913 0,0 -0.46433,0 -0.46433,0 -0.77573,-0.77629 -2.79242,-0.77629 -4.34261,-0.77629 -0.30955,0 -0.77561,0.46434 -0.93037,0.46434 -0.31013,0 -1.70554,1.86203 -1.70554,2.01681 v 0.15478 c 0,0.30955 -0.77562,1.08584 -1.08517,1.70666 l -16.43764,-9.77036 -7.75469,-8.99351 c 0,0 0.46671,-0.31126 0.46671,-0.31126 v -0.15478 c 0,0 0.15478,0 0.15478,0 v -0.15479 c 0,0 0.15479,-0.15489 0.15479,-0.15489 0,0 0.30955,-0.15479 0.30955,-0.15479 0,0 0.15479,-0.30955 0.15479,-0.30955 0,-0.15648 0.6214,-0.31186 0.6214,-0.46662 l 0.15478,-0.15479 c 0,0 0,-0.15478 0,-0.15478 h 0.15477 c 0,0 0,-0.15479 0,-0.15479 h 0.15478 c 0,0 0,-0.15475 0,-0.15475 v -0.15649 c 0,0 0.15478,0 0.15478,0 l 0.15478,-0.30957 c 0,0 0,-0.15535 0,-0.15535 h 0.15649 c 0,0 0,-0.30955 0,-0.30955 0,0 0.1549,-0.1549 0.1549,-0.1549 0,-0.15478 0,-0.46606 0,-0.46606 0,0 0.15534,-0.15476 0.15534,-0.30955 0,0 0,-0.31013 0,-0.31013 0,0 0.15478,-0.31127 0.15478,-0.31127 0,0 0,-0.30956 0,-0.46433 0,-0.15478 0,-0.61969 0,-0.77629 0.15479,0 0.46434,-0.15478 0.46434,-0.15478 v -0.15479 c 0,0 0.15649,0 0.15649,0 h 0.30957 c 0,0 0.15477,-0.15476 0.15477,-0.15476 0,0 0.15479,-0.15479 0.15479,-0.15479 0,0 0.4649,0 0.4649,0 0,0 0.15649,-0.30956 0.31127,-0.30956 0,0 0.30967,0 0.30967,0 0,0 0,-0.1565 0,-0.1565 l 0.6214,-0.31013 -0.77629,-6.97795 7.28809,5.89279 c 0,1.08516 1.08585,1.08516 2.17102,1.08516 0.61967,0 1.86202,-0.93038 1.86202,-1.55018 0,-0.15477 0,-0.77559 0,-0.93038 0,-0.77619 -0.46662,-1.24052 -0.6214,-1.86146 0,-0.15535 -0.46447,-1.24051 -0.46447,-1.24051 -0.31126,-0.30957 -0.46603,-0.92937 -1.08572,-1.39542 l -7.2898,-6.04746 -3.56631,0.7756 -0.77446,2.94549 c 0,0 -0.31139,-0.30957 -0.31139,-0.30957 0,0 -0.30956,-0.30955 -0.30956,-0.30955 -0.15478,-0.15477 -0.46433,-0.31126 -0.61912,-0.46605 -0.15534,-0.15534 -1.55189,-0.61968 -1.70723,-0.77446 -0.77391,-0.77629 -3.41154,0.46433 -3.87588,0.46433 -0.46605,0 -0.77619,0.62141 -0.93097,1.08573 l -4.49737,-2.94718 c -1.0853,0 -2.32581,0 -2.94548,0.62083 -0.31127,0.31025 -1.39543,1.39541 -1.39543,1.86203 0,1.08527 -0.62082,5.27127 0.61971,5.58084 0,0 0.15489,0.15535 0.15489,0.15535 0,0.31126 0.46605,0.15647 0.46605,0.46604 0,0.1549 0.15478,0.61923 0.15478,0.61923 0.30956,0.31127 0.61967,1.24053 1.01175,1.85227 -19.20437,-7.77232 -23.92244,-22.63864 -23.92244,-22.63864 0,0 11.4576,-21.96382 31.33632,-14.53061 21.90109,23.31582 70.41827,54.40181 70.41827,54.40181 73.78989,41.90049 127.36141,46.29604 127.36141,46.29604 l 0.6727,21.62403 c 0,0 -88.95002,-3.71838 -148.58831,-44.60415 z m 95.65701,296.90584 -10.15733,-1.35381 6.84251,7.5606 z m 13.56315,-3.67508 -2.67297,5.00094 -6.25405,-0.76309 -4.85864,9.09317 4.19395,4.62476 -2.60342,4.87128 -18.12657,-20.95424 2.59557,-4.85875 z m -39.72616,19.71257 2.52616,-4.53614 14.33763,7.90893 c 1.86771,1.03062 3.22153,1.99521 4.04554,2.87435 1.07267,1.16949 1.68723,2.55058 1.83918,4.14919 0.15591,1.60019 -0.29876,3.34719 -1.35383,5.24103 -1.2388,2.22456 -2.81285,3.59372 -4.73748,4.10193 -1.91658,0.50525 -4.0893,0.10171 -6.51067,-1.22757 l 1.88931,-4.55987 c 1.3305,0.66299 2.35022,0.97879 3.06786,0.95311 1.08575,-0.0454 1.90976,-0.57241 2.46808,-1.57633 0.56617,-1.0112 0.67606,-1.89044 0.32434,-2.63411 -0.34547,-0.73697 -1.43576,-1.61451 -3.26994,-2.62456 z m 1.93772,28.18253 -10.03835,-2.05554 6.2944,8.01767 z m 13.78567,-2.72467 -3.01663,4.8057 -6.1846,-1.19564 -5.48642,8.73521 3.85882,4.90025 -2.93924,4.68125 -16.60991,-22.16417 2.92902,-4.66353 z m -34.45944,32.459 5.66858,3.95052 2.7697,-3.93905 c 1.08402,-1.53938 1.72757,-2.53923 1.92905,-3.01492 0.33412,-0.7131 0.40981,-1.42781 0.24525,-2.13578 -0.16955,-0.71014 -0.63048,-1.33269 -1.38224,-1.85681 -0.63388,-0.44388 -1.28267,-0.66127 -1.94224,-0.6681 -0.66299,0.002 -1.30029,0.21626 -1.90976,0.65491 -0.61003,0.43879 -1.59564,1.63271 -2.96025,3.57155 z m -8.43461,-5.87677 4.90537,3.41846 1.96156,-2.79071 c 1.16938,-1.66167 1.86941,-2.7099 2.10499,-3.14867 0.42729,-0.78584 0.57866,-1.53417 0.45468,-2.24728 -0.1275,-0.70956 -0.53376,-1.30198 -1.22132,-1.78066 -0.65433,-0.45695 -1.31618,-0.65206 -1.97747,-0.57751 -0.66471,0.0772 -1.28893,0.44048 -1.86941,1.08857 -0.34705,0.39035 -1.22745,1.58598 -2.63764,3.59257 z m -6.5301,1.80337 5.93599,-8.43474 c 1.17277,-1.67132 2.12316,-2.86978 2.84239,-3.59073 0.71653,-0.72447 1.52464,-1.25313 2.4232,-1.59393 0.9014,-0.33867 1.86474,-0.46446 2.91129,-0.38082 1.03743,0.0806 2.02305,0.44217 2.93299,1.07788 0.99356,0.69026 1.71917,1.59509 2.17726,2.70368 0.45013,1.113 0.56514,2.26772 0.33923,3.46676 1.27574,-1.01983 2.61932,-1.56669 4.00678,-1.62475 1.39529,-0.0597 2.70365,0.34036 3.92769,1.19393 0.96176,0.67094 1.74701,1.54324 2.34398,2.6291 0.59697,1.07948 0.89856,2.20057 0.89856,3.3472 -0.002,1.15018 -0.3375,2.33716 -1.00662,3.56189 -0.42401,0.76139 -1.58089,2.51012 -3.47314,5.23935 l -5.05559,7.18343 z m 4.2959,20.8399 -9.82107,-2.91822 5.56836,8.53386 z m 13.96944,-1.51767 -3.4246,4.52465 -6.05895,-1.7277 -6.22496,8.22701 3.41324,5.21672 -3.33755,4.40851 -14.60799,-23.52071 3.32733,-4.39271 z m -40.15347,27.39838 2.48398,-2.94717 c 1.60998,-1.91157 2.54093,-3.16983 2.78106,-3.78441 0.23841,-0.60775 0.27093,-1.21438 0.1,-1.81759 -0.17126,-0.59866 -0.54855,-1.14721 -1.14381,-1.64576 -0.67095,-0.55821 -1.35666,-0.82743 -2.06623,-0.81436 -0.70857,0.0114 -1.38916,0.29365 -2.04691,0.85028 -0.31298,0.28514 -1.15188,1.2371 -2.51705,2.85502 l -2.61776,3.10653 z m 8.08483,13.54716 -19.83154,-16.56035 7.07353,-8.39328 c 1.77895,-2.10782 3.24879,-3.48722 4.40863,-4.14679 1.16311,-0.65844 2.44181,-0.89743 3.8361,-0.71185 1.39642,0.18887 2.6774,0.77277 3.8503,1.75212 1.48701,1.24223 2.35192,2.7065 2.58865,4.38578 0.23274,1.67135 -0.2532,3.48963 -1.46415,5.43176 1.2354,-0.44048 2.38884,-0.68913 3.46617,-0.74379 1.07779,-0.058 2.78446,0.0852 5.12958,0.41946 l 5.90234,0.82118 -4.01645,4.76307 -6.7458,-0.72094 c -2.40545,-0.26582 -3.96518,-0.37559 -4.68284,-0.33525 -0.72093,0.0398 -1.32939,0.21458 -1.83917,0.50822 -0.5031,0.3016 -1.13869,0.90652 -1.91329,1.82439 l -0.67889,0.80641 8.27996,6.91194 z m -12.32607,14.11923 -15.98112,-14.32287 -5.13752,5.68151 -3.25858,-2.91991 13.76465,-15.21291 3.25847,2.91822 -5.12788,5.66504 15.98114,14.32299 z m -33.51358,19.73302 -9.16262,-4.56796 3.99428,9.36238 z m 14.0224,0.91959 -4.16157,3.86507 -5.66393,-2.74854 -7.57037,7.02512 2.45217,5.72767 -4.05519,3.76552 -10.28199,-25.68718 4.04383,-3.75416 z m -39.05966,33.97225 -16.29081,-20.02384 4.06372,-3.27607 6.40998,7.87982 7.9596,-6.41508 -6.41055,-7.87813 4.06033,-3.27334 16.29181,20.02382 -4.05974,3.27284 -7.12523,-8.75582 -7.95903,6.41506 7.12479,8.75297 z m -15.02747,-0.32263 5.09266,-1.49556 c 0.93721,2.76516 1.03846,5.21548 0.30786,7.35246 -0.72732,2.13109 -2.24728,3.97992 -4.54919,5.52331 -2.84982,1.91314 -5.85053,2.51528 -8.99467,1.81304 -3.15038,-0.71125 -5.86369,-2.74169 -8.13939,-6.09868 -2.41,-3.55727 -3.35527,-6.93808 -2.84592,-10.14484 0.50991,-3.2004 2.26658,-5.81246 5.27526,-7.83215 2.62286,-1.76116 5.27924,-2.42416 7.96698,-1.97402 1.5968,0.25162 3.21358,1.07436 4.86206,2.45676 l -3.5987,3.90033 c -1.00392,-0.9418 -2.12316,-1.46141 -3.36835,-1.55811 -1.24051,-0.10331 -2.43444,0.23562 -3.58461,1.00667 -1.58884,1.06756 -2.49875,2.50516 -2.71617,4.30836 -0.22138,1.79712 0.53208,3.96813 2.25636,6.51535 1.83136,2.69854 3.61986,4.29869 5.3738,4.78647 1.75327,0.49331 3.40982,0.21446 4.9714,-0.83434 1.15174,-0.77445 1.89667,-1.79989 2.22897,-3.08891 0.33922,-1.2844 0.15364,-2.83101 -0.53835,-4.63614 z m -34.87534,-18.68309 4.52636,2.60172 -7.01092,12.08423 c -1.10973,1.916 -1.77895,3.197 -1.9951,3.82473 -0.33751,1.02709 -0.29874,2.02408 0.10795,2.99376 0.40967,0.97604 1.24347,1.8229 2.50955,2.54832 1.28268,0.73931 2.40547,1.03747 3.36209,0.88604 0.95324,-0.14507 1.71805,-0.56341 2.28877,-1.24568 0.57764,-0.68686 1.37154,-1.91322 2.39863,-3.68063 l 7.15888,-12.34199 4.52635,2.60001 -6.7992,11.72116 c -1.55644,2.67914 -2.77251,4.50193 -3.65847,5.46638 -0.88833,0.96461 -1.87736,1.63778 -2.97458,2.02308 -1.10177,0.38069 -2.33374,0.48263 -3.69383,0.30331 -1.3629,-0.17921 -2.9324,-0.78411 -4.70852,-1.80338 -2.13909,-1.22921 -3.61985,-2.40828 -4.43918,-3.5362 -0.82119,-1.12902 -1.32145,-2.26945 -1.50985,-3.42461 -0.18718,-1.15175 -0.1291,-2.2194 0.16568,-3.20049 0.44389,-1.44827 1.39246,-3.4178 2.8407,-5.91487 z m -32.48637,7.88679 15.0905,-20.67378 4.2276,3.05651 -12.52857,17.16013 10.51233,7.60278 -2.56307,3.51183 z m -42.50553,-53.93293 4.75069,-9.03681 -9.48012,3.81211 z m -1.16824,13.93876 -3.80997,-4.21 2.86185,-5.58651 -6.92842,-7.65572 -5.79596,2.34056 -3.71198,-4.10191 25.98421,-9.78218 3.69725,4.08758 z m -23.6881,-27.38079 20.11724,-16.21331 3.28857,4.0426 -20.11826,16.21342 z m 3.28414,-31.23166 -13.69183,10.26779 2.34853,3.10025 c 0.87754,1.15802 1.57576,1.95021 2.10158,2.36672 0.67776,0.54526 1.38576,0.89173 2.12613,1.03401 0.74083,0.14342 1.68271,-0.002 2.81969,-0.41137 1.13757,-0.41492 2.51012,-1.22132 4.11043,-2.41977 1.59679,-1.19835 2.71161,-2.26036 3.35859,-3.17938 0.64025,-0.92469 1.01299,-1.81985 1.10628,-2.68138 0.0983,-0.86789 -0.0642,-1.74998 -0.48547,-2.65479 -0.30331,-0.67946 -1.09823,-1.86019 -2.38261,-3.55892 z m 0.35513,-6.77816 5.74869,7.59479 c 1.29404,1.70839 2.15056,3.11004 2.56648,4.20827 0.56004,1.47451 0.70687,2.98595 0.43878,4.52978 -0.25148,1.54564 -0.87412,3.03777 -1.8518,4.47806 -0.9856,1.43859 -2.44239,2.88229 -4.38293,4.33737 -1.69861,1.27472 -3.32619,2.16477 -4.87639,2.66673 -1.89043,0.61458 -3.66301,0.79662 -5.31844,0.53377 -1.25143,-0.18842 -2.53582,-0.75004 -3.85654,-1.67758 -0.98902,-0.69493 -2.06352,-1.81486 -3.22495,-3.35017 l -5.91666,-7.81561 z m -14.94097,-22.59319 2.92162,4.31365 -11.62091,7.80072 c -1.84384,1.23892 -3.00868,2.09702 -3.47928,2.56818 -0.75685,0.77628 -1.16153,1.69076 -1.223,2.73616 -0.0614,1.05505 0.31649,2.18409 1.13596,3.3871 0.82744,1.22289 1.70486,1.98088 2.62899,2.26319 0.92256,0.2874 1.79203,0.24353 2.60525,-0.12069 0.82401,-0.3648 2.07772,-1.1211 3.77802,-2.26149 l 11.87082,-7.97039 2.92276,4.31363 -11.27214,7.56685 c -2.57957,1.73055 -4.47625,2.83743 -5.69756,3.31823 -1.22119,0.47911 -2.40718,0.65334 -3.56689,0.51787 -1.1546,-0.13546 -2.30989,-0.58276 -3.45198,-1.33564 -1.14211,-0.75686 -2.28876,-1.9843 -3.43597,-3.67507 -1.38235,-2.03895 -2.19556,-3.74723 -2.43399,-5.1182 -0.24013,-1.37257 -0.18887,-2.6148 0.15024,-3.73589 0.34321,-1.11481 0.86276,-2.05201 1.56099,-2.80375 1.03402,-1.10631 2.75547,-2.46466 5.15911,-4.07794 z m -30.62777,-2.04238 18.61991,-10.69962 -3.83894,-6.61998 3.79677,-2.18125 10.28539,17.72999 -3.79734,2.18068 -3.82928,-6.60239 -18.62342,10.70132 z m -8.66237,-33.32629 2.75481,4.28453 c -1.38734,1.04198 -2.22272,2.15612 -2.50956,3.35515 -0.2857,1.18711 -0.0744,2.48739 0.64821,3.89702 0.76481,1.49212 1.65656,2.45843 2.68252,2.88741 1.02096,0.43537 1.95818,0.44218 2.80674,0.0114 0.54684,-0.27888 0.92754,-0.67265 1.14209,-1.1871 0.22594,-0.50992 0.27593,-1.23611 0.14684,-2.1733 -0.0835,-0.63855 -0.38526,-2.04692 -0.88891,-4.22134 -0.65447,-2.79696 -0.78368,-4.92641 -0.39321,-6.38441 0.54345,-2.05203 1.73054,-3.54244 3.55494,-4.46829 1.17791,-0.59525 2.44239,-0.82288 3.8053,-0.67947 1.36179,0.14513 2.62969,0.70844 3.80373,1.681 1.17107,0.98051 2.21022,2.3468 3.11162,4.11042 1.47793,2.88571 1.95022,5.37141 1.43121,7.47355 -0.52753,2.09817 -1.82611,3.72109 -3.91178,4.87128 l -2.57444,-4.53103 c 1.08515,-0.79719 1.71917,-1.66168 1.90293,-2.57331 0.18558,-0.91618 -0.0591,-2.02419 -0.72379,-3.32732 -0.69207,-1.347 -1.50688,-2.26659 -2.45387,-2.744 -0.60321,-0.31126 -1.20983,-0.31478 -1.80509,-0.0115 -0.54685,0.27876 -0.89858,0.74537 -1.05164,1.40155 -0.19342,0.83082 0.017,2.51352 0.64367,5.03966 0.61629,2.52957 0.91618,4.47796 0.90026,5.84609 -0.0227,1.37087 -0.36933,2.60967 -1.04538,3.72735 -0.68402,1.11312 -1.75043,2.03895 -3.20675,2.7782 -1.32131,0.66924 -2.74741,0.9355 -4.27317,0.78526 -1.52791,-0.14683 -2.9164,-0.74366 -4.15875,-1.79532 -1.24675,-1.05163 -2.3792,-2.57796 -3.39902,-4.57134 -1.48701,-2.90062 -1.95645,-5.46995 -1.40621,-7.70743 0.55323,-2.24046 2.04193,-4.16511 4.4667,-5.77325 z m -18.06395,-19.09289 23.46094,-10.88848 8.11095,17.30881 -3.97325,1.84373 -5.90064,-12.59519 -5.19901,2.41173 5.49095,11.72228 -3.95053,1.83236 -5.49084,-11.72058 -6.3861,2.96323 6.10837,13.04188 -3.95169,1.83408 z m 402.01222,-208.42191 -2.35823,-9.92163 -4.61683,9.06524 z m 8.26915,11.28238 -5.62193,-0.68856 -1.51764,-6.08506 -10.22286,-1.25473 -2.82246,5.55061 -5.47676,-0.67264 13.09997,-24.34814 5.46085,0.67094 z m -55.27822,-9.14149 4.915,-25.28884 7.64495,1.48585 1.23373,18.14251 7.88669,-16.36991 7.65918,1.48927 -4.91518,25.29 -4.73976,-0.92072 3.87027,-19.90781 -8.89163,18.93016 -4.91516,-0.95495 -1.13757,-20.87851 -3.8679,19.90539 z M 898.12,556.7379 l 6.23303,-24.9968 5.04764,1.25642 -6.23473,24.99692 z m -23.16387,-7.30105 7.89573,-24.30153 4.9458,1.60643 -6.55394,20.17407 12.29867,3.99543 -1.34062,4.12975 z m -19.8753,-21.5689 c -1.04369,2.72297 -1.20358,5.03115 -0.4889,6.91875 0.71821,1.88701 2.04693,3.2005 3.98463,3.94417 1.9326,0.74322 3.7877,0.65958 5.56835,-0.26456 1.77271,-0.91788 3.1971,-2.76854 4.26806,-5.55925 1.05846,-2.7531 1.24051,-5.04082 0.55992,-6.86351 -0.69027,-1.81817 -2.03557,-3.11334 -4.03578,-3.88112 -2.00374,-0.76764 -3.88281,-0.70162 -5.63324,0.20319 -1.74871,0.90198 -3.15835,2.73094 -4.22304,5.50233 z m -5.06355,-1.75668 c 0.94232,-2.45218 2.09522,-4.36646 3.46677,-5.74926 1.01743,-1.00789 2.18579,-1.82908 3.50653,-2.43911 1.31972,-0.60605 2.63252,-0.93038 3.93963,-0.96914 1.74544,-0.0614 3.58915,0.28853 5.54903,1.04029 3.54358,1.36176 5.95699,3.54415 7.23967,6.56248 1.28552,3.01151 1.17744,6.47772 -0.32604,10.3912 -1.49212,3.88791 -3.71656,6.51533 -6.66841,7.90095 -2.9523,1.37768 -6.19599,1.39429 -9.72423,0.0397 -3.57767,-1.37269 -6.00359,-3.55847 -7.27831,-6.54601 -1.27075,-2.9956 -1.17118,-6.40372 0.29536,-10.23015 z m -10.31267,-1.78919 3.89064,3.57496 c -1.89043,2.22444 -3.93563,3.57313 -6.14246,4.05223 -2.20168,0.47583 -4.56339,0.13037 -7.06841,-1.03901 -3.09913,-1.44382 -5.15412,-3.69553 -6.16247,-6.73955 -1.00607,-3.05013 -0.65617,-6.41224 1.05506,-10.08333 1.81191,-3.88781 4.22646,-6.43668 7.23342,-7.65107 3.0081,-1.21322 6.14599,-1.05958 9.42035,0.46605 2.85389,1.33108 4.78138,3.25505 5.77666,5.77665 0.6015,1.49202 0.72616,3.29711 0.38525,5.41857 l -5.18765,-1.06643 c 0.29364,-1.3389 0.1633,-2.56477 -0.39037,-3.67608 -0.54853,-1.10859 -1.45335,-1.95363 -2.70365,-2.53581 -1.7277,-0.80697 -3.42459,-0.84389 -5.08116,-0.1 -1.65314,0.73573 -3.12936,2.49707 -4.42965,5.27983 -1.37427,2.95173 -1.82908,5.30367 -1.34701,7.04897 0.47458,1.74871 1.56327,3.01833 3.25847,3.81053 1.25825,0.58559 2.51819,0.69197 3.79292,0.31241 1.27233,-0.37388 2.5067,-1.32712 3.70006,-2.84879 z m -48.73161,-15.09506 12.882,-22.31087 16.53933,9.54943 -2.18124,3.77804 -12.03684,-6.95114 -2.85673,4.94583 11.19975,6.4669 -2.16635,3.75417 -11.19988,-6.46578 -3.50665,6.0736 12.46438,7.19592 -2.17161,3.76042 z m -7.28525,-30.88448 -9.5399,14.14524 3.21697,2.16818 c 1.20301,0.81266 2.11749,1.33222 2.75038,1.55645 0.81082,0.29535 1.59052,0.3949 2.33544,0.29024 0.74538,-0.10619 1.58598,-0.54684 2.51977,-1.30325 0.93211,-0.75971 1.965,-1.96784 3.07925,-3.61814 1.11485,-1.65018 1.81305,-3.01491 2.1243,-4.09271 0.30332,-1.08573 0.3614,-2.05144 0.17128,-2.89537 -0.19172,-0.85367 -0.63221,-1.63383 -1.32132,-2.35375 -0.5065,-0.54684 -1.64179,-1.40495 -3.40187,-2.59205 z m -1.87396,-6.52385 7.88278,5.31686 c 1.77485,1.19904 3.03594,2.24545 3.78599,3.14742 1.00662,1.21451 1.63781,2.5956 1.89099,4.14055 0.26127,1.54393 0.16444,3.15721 -0.28911,4.8332 -0.4615,1.68213 -1.35836,3.51789 -2.70991,5.52335 -1.18413,1.75496 -2.42761,3.12412 -3.72279,4.10348 -1.57973,1.19222 -3.18969,1.93772 -4.82967,2.22455 -1.23892,0.22933 -2.62968,0.11432 -4.17986,-0.33695 -1.15348,-0.33741 -2.52775,-1.04698 -4.12464,-2.12488 l -8.10915,-5.46809 z m -59.83011,3.17312 -8.49509,-5.64744 2.80548,9.78061 z m 13.73669,2.6149 -4.58102,3.3279 -5.25879,-3.41323 -8.33336,6.05368 1.72316,5.98496 -4.46386,3.24085 -7.02512,-26.73881 4.45067,-3.23461 z m -3.98577,-23.32048 9.03965,14.46627 3.28927,-2.05373 c 1.23255,-0.76934 2.08282,-1.39698 2.54261,-1.87906 0.5964,-0.62081 1.0112,-1.29688 1.21438,-2.01794 0.20478,-0.72094 0.14683,-1.67474 -0.16443,-2.83276 -0.3114,-1.15983 -1.00052,-2.59729 -2.05386,-4.28282 -1.05448,-1.68735 -2.01612,-2.88742 -2.87605,-3.60507 -0.86094,-0.72106 -1.72941,-1.16653 -2.57274,-1.33448 -0.8547,-0.169 -1.75326,-0.0784 -2.68776,0.25045 -0.70161,0.24525 -1.95474,0.93039 -3.7536,2.05319 z m -6.7218,-0.94231 8.06256,-5.03741 c 1.81759,-1.13756 3.28868,-1.86317 4.41658,-2.17954 1.51599,-0.42286 3.03878,-0.43253 4.55022,-0.0454 1.51144,0.38991 2.95401,1.13358 4.2993,2.23079 1.34701,1.10005 2.6632,2.67285 3.94247,4.72159 1.11937,1.79544 1.8677,3.48894 2.23422,5.0698 0.445,1.92466 0.46432,3.70349 0.0676,5.31687 -0.30048,1.22289 -0.96632,2.45374 -2.00717,3.68119 -0.77276,0.9163 -1.98884,1.88704 -3.61643,2.90344 l -8.29757,5.18481 z m -42.94589,59.82216 -12.88028,-22.31088 4.50362,-2.60011 12.88087,22.31086 z m -28.04025,5.76698 4.28385,-2.7424 c 1.04086,1.38053 2.15851,2.21489 3.35245,2.50217 1.19051,0.28059 2.48738,0.0705 3.90042,-0.64695 1.49029,-0.76142 2.45828,-1.65031 2.88741,-2.67128 0.43537,-1.018 0.44217,-1.94907 0.0115,-2.79412 -0.27946,-0.54343 -0.67265,-0.92072 -1.18711,-1.13698 -0.50978,-0.22422 -1.23767,-0.27434 -2.17316,-0.14512 -0.63856,0.08 -2.04703,0.38354 -4.22135,0.88378 -2.79707,0.65164 -4.92821,0.78244 -6.38498,0.39378 -2.05329,-0.544 -3.54189,-1.72315 -4.4684,-3.54074 -0.59627,-1.17108 -0.82051,-2.42818 -0.68062,-3.78769 0.14854,-1.3521 0.70857,-2.6132 1.68282,-3.78257 0.9805,-1.16665 2.34512,-2.19898 4.10861,-3.09744 2.88755,-1.47108 5.37323,-1.94394 7.47482,-1.42608 2.09861,0.52582 3.71995,1.81986 4.8717,3.89235 l -4.53146,2.56479 c -0.79959,-1.08063 -1.65828,-1.7111 -2.57275,-1.89498 -0.91617,-0.18546 -2.02421,0.058 -3.32902,0.72277 -1.34587,0.68513 -2.2666,1.49494 -2.74128,2.44012 -0.3124,0.60206 -0.3141,1.20356 -0.0114,1.79713 0.27716,0.54514 0.74377,0.89231 1.39995,1.04368 0.83254,0.19513 2.51637,-0.0171 5.04138,-0.63742 2.52603,-0.61457 4.47284,-0.91107 5.84257,-0.89799 1.37085,0.0227 2.60978,0.36762 3.72917,1.04367 1.11482,0.6789 2.03613,1.74192 2.77478,3.18915 0.67265,1.3162 0.93721,2.73546 0.78868,4.25201 -0.14682,1.52282 -0.7438,2.90174 -1.79543,4.13773 -1.05164,1.24176 -2.57957,2.37136 -4.57125,3.38595 -2.9023,1.47906 -5.47051,1.94511 -7.71095,1.39655 -2.23875,-0.5481 -4.16157,-2.03214 -5.76971,-4.44387 z m -22.50611,3.5054 3.4838,-1.6246 c 2.26205,-1.05506 3.63462,-1.80679 4.10875,-2.25978 0.47115,-0.45183 0.75686,-0.99085 0.8615,-1.60713 0.0948,-0.61288 -0.0114,-1.27245 -0.33866,-1.97238 -0.36806,-0.78753 -0.87457,-1.31971 -1.51995,-1.60984 -0.64185,-0.28741 -1.37598,-0.3165 -2.20512,-0.0886 -0.40285,0.12751 -1.56268,0.63572 -3.47584,1.52746 l -3.6745,1.71339 z m 1.5661,15.67443 -10.88689,-23.34834 9.92401,-4.62761 c 2.49875,-1.16323 4.40849,-1.79542 5.73278,-1.9035 1.32245,-0.10987 2.57785,0.21105 3.76041,0.9645 1.17903,0.76139 2.08852,1.82623 2.73094,3.20503 0.81607,1.75384 0.97595,3.44574 0.48195,5.06526 -0.49843,1.61792 -1.70315,3.05992 -3.61814,4.30725 1.30212,0.1224 2.44876,0.38354 3.44404,0.78539 0.99697,0.40173 2.47603,1.24847 4.44727,2.54079 l 4.9782,3.22096 -5.63779,2.63139 -5.77823,-3.49573 c -2.05841,-1.2469 -3.4179,-2.00659 -4.0843,-2.27114 -0.66628,-0.26298 -1.28893,-0.3648 -1.87441,-0.30968 -0.57935,0.0579 -1.40677,0.33865 -2.49546,0.84686 l -0.95198,0.44161 4.54567,9.7481 z m -24.6436,9.88991 -9.23308,-24.05005 17.82941,-6.8442 1.56325,4.07167 -12.97757,4.97945 2.04862,5.33267 12.0739,-4.63387 1.55189,4.04894 -12.07218,4.63273 2.51296,6.54714 13.43396,-5.15683 1.55702,4.05395 z m -18.77298,6.37805 -16.72037,-21.65415 5.36685,-1.74531 12.08877,16.12115 0.10796,-20.08304 5.24914,-1.70669 -0.81324,27.35341 z m -18.50615,5.44254 -6.66827,-24.88531 5.0249,-1.34531 6.66715,24.88375 z m -27.53544,6.5592 -5.35549,-25.19842 4.95205,-1.05334 13.89091,14.63413 -3.57665,-16.82447 4.72956,-1.00664 5.35549,25.19999 -5.11025,1.08529 -13.64683,-14.2757 3.49416,16.43409 z m -31.76545,-20.99469 5.15242,-0.72446 1.94043,13.81478 c 0.30842,2.19374 0.57424,3.60836 0.79049,4.23782 0.3665,1.0146 1.01119,1.77769 1.92794,2.29216 0.91743,0.51956 2.09988,0.67264 3.53564,0.47128 1.46143,-0.20377 2.52444,-0.65675 3.18288,-1.36191 0.65777,-0.69822 1.00152,-1.49653 1.02766,-2.38374 0.0285,-0.89403 -0.1,-2.3491 -0.38411,-4.36874 l -1.9843,-14.11467 5.1506,-0.72266 1.88248,13.40044 c 0.43082,3.06492 0.59865,5.2456 0.49854,6.54884 -0.10455,1.30654 -0.46262,2.44069 -1.08869,3.42006 -0.62764,0.97256 -1.53245,1.80793 -2.70877,2.50047 -1.18017,0.69311 -2.7856,1.17914 -4.80342,1.46315 -2.43568,0.34137 -4.32329,0.32205 -5.65893,-0.0665 -1.3389,-0.38694 -2.43442,-0.97879 -3.29252,-1.77269 -0.85484,-0.79209 -1.4677,-1.67134 -1.84044,-2.62287 -0.54345,-1.41461 -1.01118,-3.547 -1.41291,-6.40428 z M 877.979,756.61474 c -60.16421,126.56761 -136.22538,156.82787 -136.22538,156.82787 0,0 -80.18738,-30.26026 -140.34991,-156.82787 -35.94347,-80.48105 -36.72432,-172.66049 -36.72432,-172.66049 104.69554,-13.29351 176.50637,-82.04953 176.50637,-82.04953 0,0 68.82307,68.75602 173.51574,82.04953 0,0 -0.78413,92.17944 -36.7225,172.66049 z m 13.49544,4.79897 c -66.03417,138.91587 -149.79366,171.50588 -149.79366,171.50588 0,0 -87.74184,-32.59001 -153.7725,-171.50588 -39.44502,-88.31949 -40.30199,-189.50609 -40.30199,-189.50609 114.90965,-14.57958 194.07449,-90.04889 194.07449,-90.04889 0,0 75.18531,75.46931 190.09391,90.04889 0,0 -0.85697,101.1866 -40.30025,189.50609 z m -340.66948,13.20464 c 82.1701,172.87844 190.09681,213.4303 190.09681,213.4303 0,0 105.50361,-40.55186 187.67372,-213.4303 C 977.66443,664.70337 978.73199,538.7804 978.73199,538.7804 835.73474,520.63964 740.90177,427.86846 740.90177,427.86846 c 0,0 -97.2555,92.77118 -240.25281,110.91194 0,0 1.06754,125.92297 50.156,235.83795 z m 518.08214,18.71217 0.1353,169.99094 c 7.0497,23.49003 25.4131,33.7594 48.9512,35.64016 -13.2721,-14.02306 -17.103,-26.38882 -16.253,-52.05031 l 0.075,-153.51146 z m 0.4296,-149.62525 0.7693,108.84573 c 2.886,8.8109 15.2678,35.34994 41.8753,28.46369 -5.6888,-4.55875 -10.0845,-11.47238 -10.3503,-17.99111 l -0.1478,-97.52017 z m -46.026,-24.35608 1.0244,117.04829 c 0.4943,20.59455 14.2313,34.5658 41.3731,40.77315 1.0227,-0.44388 -13.4485,-10.39006 -14.1951,-37.05491 l -0.2421,-97.30561 z m 1.5511,150.75928 -0.438,177.21934 c 2.1717,13.87387 0.6761,28.42266 39.0517,39.79037 -13.7222,-18.14755 -13.358,-26.78709 -12.5647,-38.49695 l -0.3013,-156.55349 z m 43.2463,-369.4808 2.4309,216.54027 c 1.2007,11.25613 13.2667,30.43322 40.2606,31.79611 -11.409,-20.31236 -8.4572,-37.76105 -9.2324,-57.4367 l -0.7692,-167.43534 z m -43.7038,60.64163 v 111.28187 c 0.1,0.43878 2.9831,41.87777 34.8898,55.70561 l -6.8878,-18.01043 -1.4104,-185.38487 z m -29.68594,293.33374 h -3.71766 l -16.66517,2.6957 c -0.25842,0.3824 -0.3875,0.50991 -1.02782,1.15176 -2.68888,17.82157 -0.12918,35.51391 -1.28092,53.7179 0,19.1007 0,37.17717 0,56.02357 0,17.8244 -0.63848,34.48783 2.56018,52.43692 2.30994,11.02395 7.05594,18.33476 11.66936,26.28242 0.12918,0.38753 0.51107,0.77107 0.89858,1.54047 l 7.56345,5.89435 c 0.6408,0 1.02439,-0.25494 1.53765,-0.3807 1.9228,-1.54045 3.33418,-4.23274 4.61689,-7.05412 5.1261,-17.56496 2.3065,-34.48784 3.074,-52.43579 0,-18.97332 0,-37.30922 0,-55.76809 0,-19.23163 0,-37.56311 0,-56.02652 0,-7.94754 0.1309,-14.99893 -0.7675,-22.05256 0,-0.25321 -0.6403,-2.05376 -1.1553,-2.17785 l -6.66494,-3.84746 c 0,0 -0.6408,0 -0.6408,0 z m -581.08951,38.72748 -0.13375,169.99094 c -7.05137,23.49003 -25.41454,33.7594 -48.953,35.64016 13.27237,-14.02306 17.10505,-26.38882 16.2549,-52.05031 l -0.0757,-153.51146 z m -0.4291,-149.62525 -0.76766,108.84573 c -2.88641,8.8109 -15.26984,35.34994 -41.87662,28.46369 5.68949,-4.55875 10.0839,-11.47238 10.35132,-17.99111 l 0.14681,-97.52017 z m 46.02682,-24.35608 -1.02438,117.04829 c -0.49389,20.59455 -14.2323,34.5658 -41.37467,40.77315 -1.02084,-0.44388 13.44887,-10.39006 14.1955,-37.05491 l 0.24352,-97.30561 z m -1.55019,150.75928 0.43536,177.21934 c -2.17102,13.87387 -0.67436,28.42266 -39.0517,39.79037 13.72419,-18.14755 13.35996,-26.78709 12.56618,-38.49695 l 0.30161,-156.55349 z m -43.24749,-369.4808 -2.43273,216.54027 c -1.20019,11.25613 -13.26439,30.43322 -40.25985,31.79611 11.41148,-20.31236 8.45748,-37.76105 9.23364,-57.4367 l 0.76937,-167.43534 z m 294.5454,-180.76804 c 19.69426,14.14877 64.27565,17.74929 95.63925,15.00006 0,24.25313 -32.59556,17.99907 -47.82213,18.84581 -1.88532,1.89384 -1.85179,2.73276 0,4.61524 9.55285,7.62208 22.88557,7.49173 42.31016,8.33166 -10.03492,26.72632 -33.49415,15.56519 -51.2839,7.82527 -0.2999,18.46511 43.57364,19.34948 45.63988,22.56249 -0.98051,7.68696 -4.01021,9.4658 -12.70153,10.38721 -27.17134,-3.10209 -44.88473,-9.92912 -55.7796,-36.26282 l -11.35805,-11.10646 c 1.392,-2.80036 1.92634,-5.60084 -1.82442,-8.40235 -1.59677,-2.92617 -13.78055,-9.7532 -17.02141,-11.98571 -1.28721,-1.9194 -1.82781,-4.04098 -1.05506,-6.34565 z M 458.11289,461.2693 v 111.28187 c -0.1,0.43878 -2.98256,41.87777 -34.8914,55.70561 l 6.88807,-18.01043 1.40949,-185.38487 z m 229.94172,-33.97224 c 0,2.93583 -13.04473,15.74555 -2.69218,8.84328 1.53927,0.64367 -0.51106,2.4374 -0.76607,3.20504 l -3.84917,3.46335 c -1.28039,0 -0.12398,-2.06452 -0.76594,-2.83399 -0.64356,-1.15688 -2.05317,0.91106 -3.08265,0.91106 -2.55059,0 -2.94719,-3.59358 -2.94719,-5.38448 l 4.48601,-8.58951 2.56479,-1.15517 c 2.17146,0 4.91216,1.03732 7.0524,1.54042 z m -28.46141,22.56418 c -4.35841,9.48696 -13.07599,14.61653 -22.8225,18.97321 -0.76935,-0.38354 -1.53701,-0.51434 -1.92282,-1.53699 0,-2.15683 2.69741,-4.43137 3.97667,-6.02816 0.64185,-0.76766 -0.76764,-1.15345 -1.28097,-1.15345 l -13.59056,5.51537 c -0.12911,-0.38581 -0.51276,-0.64196 -0.76766,-1.41189 l 21.15118,-14.87253 c 2.62739,0.65659 3.19867,1.47437 5.38444,2.56477 l 8.08031,-3.97781 c 1.31449,0.49855 1.17107,0.6806 1.79191,1.92748 z m 61.85441,-51.38244 c 2.45376,2.86015 7.76096,8.31417 7.76096,12.01935 -1.59224,3.87134 -10.34005,16.02954 -15.12756,16.02954 l -5.12672,0.76937 -11.41104,7.94641 c -1.70656,-0.67594 0.38241,-2.60342 0.38241,-3.58903 0,-1.58429 -1.2053,-2.17955 -2.69105,-2.17955 -1.35495,1.70498 -16.56616,17.78281 -9.01408,16.4973 2.50842,-0.55309 4.19124,-5.25255 5.81075,-7.01206 0.23047,0.87403 1.6662,0.42912 1.6662,3.33414 -4.46317,3.88907 -9.50285,9.68843 -14.4907,12.69654 -3.1214,0.84561 -9.28829,3.97146 -12.04832,3.97146 l -3.8486,-1.15176 c -3.9311,1.79713 -11.50148,4.52522 -12.81599,9.48695 0,4.04269 -0.70173,5.58764 -4.61692,7.82016 -43.34249,21.26888 -92.23742,45.89476 -141.41008,45.89476 -8.66689,-3.12923 -4.79557,-25.64048 2.17783,-25.64048 20.89162,0 53.18571,-3.82814 70.38179,-15.12756 0,-2.53297 -1.54098,-3.94759 -2.94435,-6.02643 0.74038,-2.72639 3.5572,-3.70063 5.89438,-4.61398 0.76778,0 1.92464,0.38411 3.07812,0.76993 5.76186,1.2787 39.36137,-8.73181 39.36137,-18.97675 0.26287,-1.46133 -0.0454,-4.6151 2.30523,-4.6151 2.05328,0.51445 2.56308,2.56479 4.61806,2.30976 2.03556,-0.47399 5.12504,-2.92788 5.12504,-5.25695 0,-4.15204 1.95646,-7.92835 6.28303,-9.3607 l 11.28353,-0.51334 c 3.04217,-1.76632 4.73919,-1.72246 6.79294,1.54054 0.70344,1.16655 5.65083,1.52451 6.02471,0 2.5648,-2.30819 6.15568,-4.6151 7.56585,-7.56525 -0.34548,-6.24942 -1.70668,-10.84815 -1.41017,-17.43792 11.26292,-9.82671 18.07019,-24.21903 29.35882,-33.33154 5.19106,0 5.61495,6.94957 10.2688,7.50891 l 16.26967,-56.01687 c 5.2314,2.92788 16.27138,7.77073 20.37726,8.42849 16.41128,4.64135 42.78258,15.74385 55.00671,-0.81948 -1.33564,-8.71349 -13.82444,-4.81307 -21.15458,-16.79367 -22.82705,-1.76817 -47.05915,-9.35444 -57.1794,-25.51307 3.25162,-2.40489 -0.28571,-5.09891 -0.28571,-7.28015 l -30.82472,-36.18986 c -10.14821,-0.89231 -4.57648,4.754 -7.47865,4.754 -5.89563,-6.28487 -12.94803,-8.59009 -21.28321,-7.43834 -4.99866,1.49895 -22.53341,7.04796 -21.02196,34.49012 9.41864,-8.17699 22.55269,-7.75753 22.56235,4.74262 7.89472,9.80276 23.87244,3.94872 25.6389,18.3325 l -4.35681,7.43491 c -1.11994,5.79257 2.04976,8.93216 2.04976,14.36333 -1.10971,3.71145 -4.33737,5.11368 -5.89892,9.09761 1.96328,7.73994 14.10319,16.51219 14.10319,18.97333 -3.20947,4.30567 -21.42993,7.89185 -26.91746,9.74822 v 0 c 0,5.15228 7.96061,17.94724 6.66033,19.87189 -2.17784,0.76935 -3.97155,-1.15643 -6.66033,-1.66804 -6.92841,-2.43388 -11.79854,1.2845 -16.41366,5.5121 -15.11792,14.40537 -29.53123,27.16782 -59.36067,18.84922 -55.32149,-22.38827 -26.37573,-57.20114 -25.76797,-90.77098 0,-33.44131 -34.66377,-68.00256 -68.97456,-54.61862 -58.89462,17.62804 -80.11522,91.45556 -117.18263,131.6654 4.37783,13.12098 26.98578,-6.18633 32.76244,-11.33249 9.75105,-9.09433 43.20201,-72.79747 60.44934,-58.79268 3.34552,2.2859 -42.19594,60.10955 -48.85002,64.87263 -1.95136,14.184 17.11868,6.86068 23.96289,6.17496 16.22933,-10.13004 42.54927,-59.73 55.01193,-44.76516 12.86255,14.17603 -40.98898,56.13913 -59.05565,63.63372 -0.94414,11.87877 16.7181,10.09994 23.73184,6.0737 18.85093,-7.7205 38.6551,-41.50046 46.73471,-33.29619 11.81614,13.92399 -45.90388,48.34808 -49.27675,57.23125 4.47793,10.08673 18.00361,7.7814 18.02803,7.53787 24.0495,-3.11163 38.24203,-37.9079 46.50266,-28.7454 12.92574,11.64488 -27.46161,39.42116 -29.58931,42.15378 14.64378,12.31743 46.683,-23.17876 55.52003,-30.86232 0.34025,-0.0171 6.53122,11.97264 6.50724,12.29867 -4.09269,18.73774 -14.87596,37.5113 -56.79757,37.95007 -13.48069,-3.48266 -21.87722,-24.20814 -33.55905,-7.69151 l -0.16331,103.74865 c -0.0171,11.88719 -2.69513,20.59966 -4.99422,23.04672 10.8453,1.59337 14.95517,-15.89579 18.07987,-6.36736 0,10.62905 -12.03061,18.1493 -12.41766,17.86531 l -0.0454,113.84336 c 0.88892,10.54484 -8.96224,30.09741 -9.72364,29.95569 15.37279,-4.22986 22.57997,-18.93968 26.16118,-22.73545 10.6837,-18.47818 11.49976,-33.86065 11.79512,-31.79555 4.6925,10.46747 5.23594,21.58142 -1.15358,42.82133 4.03302,-7.37854 18.20396,-16.59753 21.40617,-0.38241 l 0.80459,153.58875 c 0.0453,11.68863 4.02338,16.66685 11.76263,16.66685 11.52591,-4.0876 6.96262,-15.00177 8.18495,-27.80696 l -0.0227,-51.15297 c 2.79695,-5.05902 7.92481,-3.69098 9.2701,0.15307 0.41991,16.15182 4.36079,26.88225 10.64496,35.98677 6.77024,-13.34009 9.93709,-9.75787 14.22958,-13.07723 12.77391,19.89576 65.66484,79.48234 83.46184,92.94707 8.0478,28.19559 -43.79374,76.77078 -73.71546,90.89848 l 38.76102,33.1273 58.4155,-95.17515 4.21214,2.84541 -43.21669,106.12324 42.28403,20.5169 28.13765,-100.3919 6.35532,4.4376 -14.56754,123.9011 h 65.3631 l -14.56981,-123.9011 6.35589,-4.4376 28.13878,100.3919 42.2829,-20.5169 -43.2167,-106.12324 4.21157,-2.84541 58.41553,95.17515 38.76328,-33.1273 c -29.92173,-14.1277 -81.76554,-62.70289 -73.71777,-90.89848 17.79929,-13.46473 70.68793,-73.05131 83.46415,-92.94707 4.29078,3.31936 7.45708,-0.26286 14.2273,13.07723 6.2848,-9.10452 10.22736,-19.83495 10.64495,-35.98677 1.34707,-3.84405 6.47486,-5.21209 9.27241,-0.15307 l -0.0231,51.15297 c 1.22285,12.80519 -3.34209,23.71936 8.18496,27.80696 7.73812,0 11.71592,-4.97822 11.76258,-16.66685 l 0.80358,-153.58875 c 3.20317,-16.21512 17.3747,-6.99613 21.40604,0.38241 -6.38839,-21.23991 -5.84605,-32.35386 -1.15358,-42.82133 0.29651,-2.0651 1.1132,13.31737 11.79687,31.79555 3.5806,3.79577 10.78668,18.50559 26.15958,22.73545 -0.7616,0.14172 -10.6126,-19.41085 -9.722,-29.95569 l -0.047,-113.84336 c -0.3869,0.28399 -12.4177,-7.23626 -12.4177,-17.86531 3.12297,-9.52843 7.2351,7.96073 18.0799,6.36736 -2.3003,-2.44706 -4.9781,-11.15953 -4.996,-23.04672 l -0.1627,-103.74865 c -11.68074,-16.51663 -20.07661,4.20885 -33.55903,7.69151 -41.91993,-0.43877 -52.7038,-19.21233 -56.79592,-37.95007 -0.0285,-0.32603 6.16534,-12.318 6.50556,-12.29867 8.83816,7.68356 40.87625,43.17975 55.5201,30.86232 -2.12777,-2.73262 -42.51342,-30.5089 -29.58769,-42.15378 8.25893,-9.1625 22.45263,25.63377 46.501,28.7454 0.0232,0.24353 13.55008,2.54886 18.02978,-7.53787 -3.3729,-8.88317 -61.09522,-43.30726 -49.27911,-57.23125 8.08021,-8.20427 27.88436,25.57569 46.73651,33.29619 7.0124,4.02624 24.674,5.80507 23.7324,-6.0737 -18.0685,-7.49459 -71.91883,-49.45769 -59.05628,-63.63372 12.46324,-14.96484 38.78258,34.63512 55.01228,44.76516 6.8429,0.68572 25.9126,8.00904 23.9622,-6.17496 -6.6534,-4.76308 -52.1969,-62.58673 -48.8496,-64.87263 17.2476,-14.00479 50.6985,49.69835 60.45,58.79268 5.777,5.14616 28.3844,24.45347 32.7602,11.33249 -37.0661,-40.20984 -58.2866,-114.03736 -117.18056,-131.6654 -34.31254,-13.38394 -68.97516,21.17731 -68.97516,54.61862 0.60832,33.56984 29.55349,68.38271 -25.76969,90.77098 -18.64093,5.19899 -31.26518,2.16305 -41.79696,-4.36022 l -29.20052,10.74634 -8.12974,-6.74751 24.94794,-12.36924 2.80206,-8.4336 c 0,0 -14.01329,1.12449 -24.9468,-14.05661 -10.93177,-15.17928 -17.65871,-17.99057 -17.65871,-17.99057 0,0 -31.39267,8.99762 -56.06187,-6.46565 z M 487.79888,754.60304 h 3.71826 l 16.66345,2.6957 c 0.25955,0.3824 0.38694,0.50991 1.0289,1.15176 2.68946,17.82157 0.12752,35.51391 1.28098,53.7179 0,19.1007 0,37.17717 0,56.02357 0,17.8244 0.63844,34.48783 -2.56024,52.43692 -2.30989,11.02395 -7.05706,18.33476 -11.66876,26.28242 -0.12922,0.38753 -0.51333,0.77107 -0.89856,1.54047 l -7.56403,5.89435 c -0.64026,0 -1.02436,-0.25494 -1.53881,-0.3807 -1.92112,-1.54045 -3.33415,-4.23274 -4.61513,-7.05412 -5.12843,-17.56496 -2.30874,-34.48784 -3.07469,-52.43579 0,-18.97332 0,-37.30922 0,-55.76809 0,-19.23163 0,-37.56311 0,-56.02652 0,-7.94754 -0.13091,-14.99893 0.76595,-22.05256 0,-0.25321 0.64254,-2.05376 1.15528,-2.17785 l 6.66714,-3.84746 c 0,0 0.64026,0 0.64026,0 z"
       style="fill:#000000;fill-rule:evenodd;stroke-width:5.69074"
       id="path2" />
    <path
       d="m 741.2471,171.57932 c 273.3746,0 495.0775,221.70289 495.0775,495.07748 0,273.37459 -221.7029,495.0775 -495.0775,495.0775 -273.37459,0 -495.07748,-221.70291 -495.07748,-495.0775 0,-273.37459 221.70289,-495.07748 495.07748,-495.07748 z m 0,15.75363 c 264.6787,0 479.3233,214.64466 479.3233,479.32385 0,264.67867 -214.6446,479.3233 -479.3233,479.3233 -264.67919,0 -479.32385,-214.64463 -479.32385,-479.3233 0,-264.67919 214.64466,-479.32385 479.32385,-479.32385 z"
       style="fill:#000000;fill-rule:evenodd;stroke-width:5.19408"
       id="path4" />
    <path
       d="m 741.2471,126.6568 c 298.1799,0 540,241.82006 540,540 0,298.17994 -241.8201,540 -540,540 -298.17994,0 -540,-241.82006 -540,-540 0,-298.17994 241.82006,-540 540,-540 z m 0,17.18356 c 288.6956,0 522.8164,234.12088 522.8164,522.81644 0,288.69556 -234.1208,522.8164 -522.8164,522.8164 -288.69556,0 -522.81644,-234.12084 -522.81644,-522.8164 0,-288.69556 234.12088,-522.81644 522.81644,-522.81644 z"
       style="fill:#000000;fill-rule:evenodd;stroke-width:5.19408"
       id="path6" />
    <path
       d="m 165.3783,297.7696 15.6382,-7.3735"
       style="fill:#806f43;fill-rule:evenodd"
       id="path20" />
  </g>
</svg>
